Coordinates
version=1
nRows=22
nColumns=24
inDegrees=yes

Units are S.I. units (second, meters, Newtons, ...)
Angles are in degrees.

endheader
time	pelvis_tilt	pelvis_list	pelvis_rotation	pelvis_tx	pelvis_ty	pelvis_tz	hip_flexion_r	hip_adduction_r	hip_rotation_r	knee_angle_r	ankle_angle_r	subtalar_angle_r	mtp_angle_r	hip_flexion_l	hip_adduction_l	hip_rotation_l	knee_angle_l	ankle_angle_l	subtalar_angle_l	mtp_angle_l	lumbar_extension	lumbar_bending	lumbar_rotation
      3.15000000	     -0.85039226	      3.33352712	      3.42115659	     -1.56819952	      0.91045993	      0.19991885	     31.84042032	     -1.13451596	     -1.56602409	    -17.20744678	     10.52286268	     -6.71348086	      0.00000000	    -13.38368615	      8.40422312	      6.22567237	    -17.47350063	     26.28191702	    -10.57183662	      0.00000000	    -12.65710023	     -2.77952334	    -14.87834021
      3.15500000	     -0.75483895	      3.11446039	      3.36197920	     -1.56011662	      0.90955454	      0.20033393	     31.87358751	     -0.75643271	     -1.20737614	    -18.21784365	      9.91440768	     -7.44066230	      0.00000000	    -13.53220610	      8.06737961	      5.68316331	    -18.36064857	     26.25115528	     -9.84360601	      0.00000000	    -12.63493002	     -2.48222544	    -14.70306377
      3.16000000	     -0.72024636	      2.87773875	      3.21877442	     -1.55204645	      0.90862754	      0.20094024	     31.98103076	     -0.30823247	     -0.76476734	    -19.23243051	      9.19801988	     -8.17924224	      0.00000000	    -13.54344164	      7.70940978	      4.94317259	    -19.36449955	     26.20106319	     -8.96104064	      0.00000000	    -12.53793706	     -2.18973497	    -14.44196006
      3.16500000	     -0.70044106	      2.59876440	      3.09450137	     -1.54399128	      0.90782199	      0.20156217	     32.08666506	      0.17607039	     -0.34597496	    -20.22196783	      8.41520018	     -8.91098760	      0.00000000	    -13.47590486	      7.28872156	      4.18444238	    -20.47074675	     26.06447806	     -8.05399044	      0.00000000	    -12.42665034	     -1.84754835	    -14.17947544
      3.17000000	     -0.68718433	      2.30243224	      2.93264066	     -1.53595790	      0.90711223	      0.20228007	     32.21301629	      0.70160538	      0.07335528	    -21.23325911	      7.60479099	     -9.62222901	      0.00000000	    -13.35411462	      6.84253368	      3.38757900	    -21.64796326	     25.83235787	     -7.13194385	      0.00000000	    -12.31088558	     -1.49627383	    -13.90735052
      3.17500000	     -0.71795559	      1.93150576	      2.75947453	     -1.52783655	      0.90645955	      0.20297053	     32.38210038	      1.29418776	      0.40880193	    -22.25136419	      6.82919549	    -10.23829585	      0.00000000	    -13.14172893	      6.32255922	      2.62000916	    -22.90195550	     25.48930374	     -6.28517661	      0.00000000	    -12.12152873	     -1.05028419	    -13.59233034
      3.18000000	     -0.74646844	      1.58248966	      2.59300138	     -1.51979173	      0.90592070	      0.20374196	     32.55150694	      1.88368496	      0.81208594	    -23.28750146	      6.06157768	    -10.89907128	      0.00000000	    -12.85583128	      5.79288473	      1.79273044	    -24.27315320	     25.03887170	     -5.37171681	      0.00000000	    -11.95422495	     -0.64294466	    -13.30243921
      3.18500000	     -0.78370942	      1.21185090	      2.42339839	     -1.51170976	      0.90546607	      0.20449127	     32.72096946	      2.49614917	      1.19091888	    -24.32760566	      5.35830496	    -11.51795753	      0.00000000	    -12.50781385	      5.23579648	      1.00420631	    -25.73137989	     24.44289174	     -4.53214562	      0.00000000	    -11.76974567	     -0.20344589	    -13.01449754
      3.19000000	     -0.82615862	      0.84135868	      2.26832910	     -1.50361793	      0.90508482	      0.20525618	     32.88378446	      3.11208565	      1.58299989	    -25.36973407	      4.71591467	    -12.13286269	      0.00000000	    -12.09334277	      4.65568676	      0.22378444	    -27.28415841	     23.72685552	     -3.70869204	      0.00000000	    -11.57923743	      0.23259677	    -12.74647871
      3.19500000	     -0.86645218	      0.47280170	      2.11222160	     -1.49551606	      0.90477012	      0.20600919	     33.02327305	      3.72546430	      1.94123103	    -26.38653322	      4.15567606	    -12.71433035	      0.00000000	    -11.62338497	      4.06948251	     -0.51412437	    -28.92611383	     22.86397370	     -2.96195201	      0.00000000	    -11.38889125	      0.66904486	    -12.50662929
      3.20000000	     -0.90858791	      0.10553745	      1.97622519	     -1.48737277	      0.90452891	      0.20676168	     33.13173891	      4.32934292	      2.27683058	    -27.36659022	      3.68188849	    -13.26403793	      0.00000000	    -11.10003225	      3.46228607	     -1.21625334	    -30.63917635	     21.85941002	     -2.25996258	      0.00000000	    -11.19176413	      1.10724588	    -12.28486972
      3.20500000	     -0.94779566	     -0.26110233	      1.83219787	     -1.47928601	      0.90431374	      0.20752549	     33.20261307	      4.93395855	      2.58655444	    -28.28342507	      3.29847305	    -13.79659381	      0.00000000	    -10.51174172	      2.85045137	     -1.86975086	    -32.45102601	     20.74669684	     -1.64274871	      0.00000000	    -11.00945034	      1.54259958	    -12.09367870
      3.21000000	     -0.98412282	     -0.62538571	      1.71241578	     -1.47120524	      0.90417127	      0.20828039	     33.22458618	      5.51793935	      2.84663362	    -29.12907334	      3.02129421	    -14.27807887	      0.00000000	     -9.87474122	      2.22229131	     -2.47268774	    -34.31929323	     19.49350846	     -1.10865591	      0.00000000	    -10.82988468	      1.96804422	    -11.92316448
      3.21500000	     -1.02301844	     -0.99495231	      1.59545909	     -1.46313036	      0.90408273	      0.20904245	     33.19417019	      6.09218263	      3.03667892	    -29.87884658	      2.87916766	    -14.69857222	      0.00000000	     -9.18696217	      1.58024275	     -3.01941505	    -36.23806189	     18.11282199	     -0.66387997	      0.00000000	    -10.64751026	      2.40363876	    -11.76651045
      3.22000000	     -1.06532053	     -1.36595643	      1.49124027	     -1.45511207	      0.90404251	      0.20982886	     33.11761428	      6.65367874	      3.17845069	    -30.54107643	      2.85428450	    -15.07476674	      0.00000000	     -8.44518886	      0.92383678	     -3.51570342	    -38.19894177	     16.63552566	     -0.31936217	      0.00000000	    -10.46782103	      2.82601820	    -11.63104267
      3.22500000	     -1.11861462	     -1.73577488	      1.38345537	     -1.44717650	      0.90403605	      0.21062146	     33.00135346	      7.20186053	      3.26655901	    -31.10621745	      2.95885013	    -15.40232198	      0.00000000	     -7.64463915	      0.26740108	     -3.95498580	    -40.19249016	     15.08402560	     -0.07532584	      0.00000000	    -10.28925380	      3.24954575	    -11.51213304
      3.23000000	     -1.19019291	     -2.11134759	      1.27589247	     -1.43929257	      0.90405859	      0.21144146	     32.85120981	      7.74300624	      3.30028815	    -31.57506378	      3.19418887	    -15.67576195	      0.00000000	     -6.78656208	     -0.39935369	     -4.35136958	    -42.19661812	     13.47392713	      0.04324475	      0.00000000	    -10.09182883	      3.67228958	    -11.41007072
      3.23500000	     -1.26255659	     -2.50640974	      1.16176422	     -1.43152392	      0.90413782	      0.21222123	     32.65869635	      8.28711470	      3.29179069	    -31.96082219	      3.53632140	    -15.84258074	      0.00000000	     -5.88996466	     -1.06678057	     -4.66969038	    -44.20248515	     11.83595273	     -0.01821203	      0.00000000	     -9.91724239	      4.12423188	    -11.27765308
      3.24000000	     -1.29632391	     -2.89536898	      1.03174761	     -1.42378034	      0.90435179	      0.21301584	     32.36260294	      8.82353809	      3.26740971	    -32.24323822	      4.02329159	    -15.94306078	      0.00000000	     -5.02125188	     -1.71798741	     -4.96449545	    -46.16150301	     10.15236602	     -0.26856075	      0.00000000	     -9.78988836	      4.56296143	    -11.13316024
      3.24500000	     -1.49363226	     -3.30106938	      0.92198661	     -1.41625191	      0.90435580	      0.21388272	     32.23287902	      9.36330126	      3.21613972	    -32.48462179	      4.46669122	    -16.06502792	      0.00000000	     -3.89776237	     -2.39720806	     -5.19223665	    -48.18825397	      8.57238474	     -0.58471903	      0.00000000	     -9.49736357	      5.00453022	    -11.05612286
      3.25000000	     -1.57847488	     -3.70382966	      0.77256036	     -1.40876939	      0.90462785	      0.21470007	     31.92691103	      9.90060582	      3.15491378	    -32.63149207	      5.01360651	    -16.07556845	      0.00000000	     -2.89912977	     -3.03977066	     -5.40402545	    -50.12494357	      6.96414895	     -1.14873582	      0.00000000	     -9.35867581	      5.45487362	    -10.86177435
      3.25500000	     -1.78163946	     -4.10014500	      0.64482788	     -1.40139894	      0.90476725	      0.21553129	     31.72646539	     10.42445785	      3.13197087	    -32.74303544	      5.58310799	    -16.06308711	      0.00000000	     -1.72577142	     -3.66623086	     -5.53695289	    -52.06412580	      5.46562427	     -1.85065771	      0.00000000	     -9.08450538	      5.88607342	    -10.76086010
